<svg width="1400" height="840" viewBox="0 0 1400 840" fill="none" xmlns="http://www.w3.org/2000/svg">
  <rect width="1400" height="840" fill="#0B0B10"/>
  <rect x="58" y="58" width="1284" height="724" stroke="rgba(255,255,255,0.1)"/>
  <circle cx="694" cy="414" r="254" fill="url(#a)" opacity="0.75"/>
  <circle cx="694" cy="414" r="190" fill="url(#b)" opacity="0.65"/>
  <circle cx="694" cy="414" r="126" fill="#141420"/>
  <circle cx="694" cy="414" r="58" fill="#E040FB"/>
  <path d="M694 160V48M694 792v-112M948 414h112M340 414H228M874 234l80-80M514 594l-80 80M874 594l80 80M514 234l-80-80" stroke="rgba(240,240,248,0.12)" stroke-width="2"/>
  <text x="94" y="132" fill="#F0F0F8" fill-opacity="0.28" font-family="Arial, sans-serif" font-size="18" letter-spacing="6">DISCORD · SCRIMS · WATCH PARTIES · EVENTS</text>
  <text x="94" y="720" fill="#F0F0F8" font-family="Arial, sans-serif" font-size="82" font-weight="700">THE CLUB</text>
  <text x="94" y="792" fill="#E040FB" font-family="Arial, sans-serif" font-size="82" font-weight="700">NEVER LOGS OFF</text>
  <defs>
    <radialGradient id="a" cx="0" cy="0" r="1" gradientUnits="userSpaceOnUse" gradientTransform="translate(694 414) rotate(90) scale(254)">
      <stop stop-color="#E040FB"/>
      <stop offset="1" stop-color="#E040FB" stop-opacity="0"/>
    </radialGradient>
    <radialGradient id="b" cx="0" cy="0" r="1" gradientUnits="userSpaceOnUse" gradientTransform="translate(694 414) rotate(90) scale(190)">
      <stop stop-color="#7C3AED"/>
      <stop offset="1" stop-color="#7C3AED" stop-opacity="0"/>
    </radialGradient>
  </defs>
</svg>
